<svg width="269" height="222" viewBox="0 0 269 222" fill="none" xmlns="http://www.w3.org/2000/svg">
<path d="M134.998 217.963C191.598 217.963 237.409 169.925 237.409 110.654C237.409 51.3841 191.598 3.51837 134.998 3.51837C78.5632 3.51837 32.586 51.5568 32.586 110.827C32.586 170.098 78.5632 217.963 134.998 217.963Z" fill="#4A515F" stroke="#34323D" stroke-width="2" stroke-miterlimit="10"/>
<path d="M185.458 218.136C169.854 218.654 151.098 218.136 137.82 217.963C124.707 218.482 105.785 218.654 90.1824 218.136C105.619 208.977 111.096 191.871 111.76 180.638H163.547C164.709 191.697 170.186 208.977 185.458 218.136Z" fill="#4A515F" stroke="#34323D" stroke-width="2" stroke-miterlimit="10"/>
<path d="M235.584 37.5599V178.738C235.584 182.366 232.928 184.958 229.94 184.958H46.695C43.5413 184.958 41.0516 182.194 41.0516 178.738V37.5599C41.0516 34.2768 43.7074 31.3392 46.695 31.3392H229.608C233.095 31.512 235.584 34.2768 235.584 37.5599Z" fill="#E4E4E4" stroke="#34323D" stroke-width="2" stroke-miterlimit="10"/>
<path d="M235.584 37.5599V159.038H41.0516V37.5599C41.0516 34.2768 43.7074 31.3392 46.695 31.3392H229.608C233.095 31.512 235.584 34.2768 235.584 37.5599Z" fill="#4A515F" stroke="#34323D" stroke-width="2" stroke-miterlimit="10"/>
<path d="M137.986 176.491C140.642 176.491 142.799 174.418 142.799 171.48C142.799 168.715 140.807 166.469 137.986 166.469C135.33 166.469 133.172 168.542 133.172 171.48C133.172 174.245 135.164 176.491 137.986 176.491Z" fill="#34323D"/>
<path d="M29 218L248 218" stroke="#34323D" stroke-width="2" stroke-miterlimit="10" stroke-linecap="round" stroke-linejoin="round"/>
<path d="M256.996 115.666C261.809 115.666 265.626 111.691 265.626 106.68C265.626 101.669 261.809 97.6943 256.996 97.6943C252.182 97.6943 248.364 101.669 248.364 106.68C248.364 111.691 252.182 115.666 256.996 115.666Z" fill="#4A515F"/>
<path opacity="0.3" d="M179.137 157.383H53.8308C49.2743 157.383 45.7533 153.713 45.7533 149.179V55.9048C45.7533 51.3706 49.2743 47.7001 53.8308 47.7001H179.137C183.693 47.7001 187.214 51.3706 187.214 55.9048V149.179C187.008 153.713 183.487 157.383 179.137 157.383Z" fill="#34323D"/>
<path d="M184.476 150.427H59.1694C54.6127 150.427 51.0917 146.757 51.0917 142.223V48.9486C51.0917 44.4145 54.6127 40.744 59.1694 40.744H184.476C189.032 40.744 192.553 44.4145 192.553 48.9486V142.223C192.345 146.757 188.824 150.427 184.476 150.427Z" fill="#E4E4E4" stroke="#525761" stroke-width="2" stroke-miterlimit="10"/>
<path d="M51.0917 63.8465H192.345" stroke="#525761" stroke-width="2" stroke-miterlimit="10"/>
<path d="M63.7251 56.0738C65.6696 56.0738 67.2461 54.4305 67.2461 52.4033C67.2461 50.3761 65.6696 48.7328 63.7251 48.7328C61.7806 48.7328 60.2041 50.3761 60.2041 52.4033C60.2041 54.4305 61.7806 56.0738 63.7251 56.0738Z" fill="#34323D"/>
<path d="M74.0814 56.0738C76.0261 56.0738 77.6024 54.4305 77.6024 52.4033C77.6024 50.3761 76.0261 48.7328 74.0814 48.7328C72.1369 48.7328 70.5604 50.3761 70.5604 52.4033C70.5604 54.4305 72.1369 56.0738 74.0814 56.0738Z" fill="#34323D"/>
<path d="M84.6445 56.0738C86.589 56.0738 88.1655 54.4305 88.1655 52.4033C88.1655 50.3761 86.589 48.7328 84.6445 48.7328C82.6998 48.7328 81.1235 50.3761 81.1235 52.4033C81.1235 54.4305 82.6998 56.0738 84.6445 56.0738Z" fill="#34323D"/>
<path d="M83.4014 76.3693H63.5181C62.2754 76.3693 61.2399 75.2897 61.2399 74.4262C61.2399 73.3467 62.2754 72.483 63.5181 72.483H83.4014C84.6441 72.483 85.6796 73.5626 85.6796 74.4262C85.6796 75.5056 84.6441 76.3693 83.4014 76.3693Z" fill="#34323D"/>
<path d="M78.6379 109.836H63.7255C62.4828 109.836 61.4473 108.756 61.4473 107.892C61.4473 106.813 62.4828 105.949 63.7255 105.949H78.6379C79.8806 105.949 80.9162 107.029 80.9162 107.892C80.7092 108.756 79.6735 109.836 78.6379 109.836Z" fill="#34323D"/>
<path d="M170.415 109.836H137.931C136.689 109.836 135.653 108.756 135.653 107.892C135.653 106.813 136.689 105.949 137.931 105.949H170.415C171.658 105.949 172.693 107.029 172.693 107.892C172.486 108.756 171.451 109.836 170.415 109.836Z" fill="#525761"/>
<path d="M128.684 109.836H87.4143C86.1716 109.836 85.136 108.756 85.136 107.892C85.136 106.813 86.1716 105.949 87.4143 105.949H128.684C129.926 105.949 130.962 107.029 130.962 107.892C130.755 108.756 129.719 109.836 128.684 109.836Z" fill="#525761"/>
<path d="M96.8638 120.847H71.5956C70.3529 120.847 69.3171 119.768 69.3171 118.904C69.3171 117.825 70.3529 116.961 71.5956 116.961H96.8638C98.1065 116.961 99.142 118.041 99.142 118.904C98.9351 119.984 97.8993 120.847 96.8638 120.847Z" fill="#525761"/>
<path d="M120.37 120.847H106.084C104.841 120.847 103.806 119.768 103.806 118.904C103.806 117.825 104.841 116.961 106.084 116.961H120.37C121.613 116.961 122.648 118.041 122.648 118.904C122.441 119.984 121.406 120.847 120.37 120.847Z" fill="#525761"/>
<path d="M92.7216 131.643H63.5181C62.2754 131.643 61.2399 130.564 61.2399 129.7C61.2399 128.62 62.2754 127.757 63.5181 127.757H92.7216C93.9643 127.757 94.9999 128.836 94.9999 129.7C94.9999 130.78 94.1715 131.643 92.7216 131.643Z" fill="#34323D"/>
<path d="M113.323 131.643H101.691C100.448 131.643 99.4126 130.564 99.4126 129.7C99.4126 128.62 100.448 127.757 101.691 127.757H113.323C114.566 127.757 115.601 128.836 115.601 129.7C115.601 130.78 114.773 131.643 113.323 131.643Z" fill="#525761"/>
<path d="M76.5667 142.87H64.1397C62.897 142.87 61.8615 141.791 61.8615 140.927C61.8615 139.847 62.897 138.984 64.1397 138.984H76.5667C77.8094 138.984 78.8451 140.063 78.8451 140.927C78.8451 142.007 78.0165 142.87 76.5667 142.87Z" fill="#525761"/>
<path d="M87.1293 142.87H84.4367C83.194 142.87 82.1584 141.791 82.1584 140.927C82.1584 139.847 83.194 138.984 84.4367 138.984H87.1293C88.3718 138.984 89.4076 140.063 89.4076 140.927C89.4076 142.007 88.3718 142.87 87.1293 142.87Z" fill="#525761"/>
<path d="M69.5246 99.0401H63.5181C62.2754 99.0401 61.2399 97.9606 61.2399 97.0969C61.2399 96.0173 62.2754 95.1537 63.5181 95.1537H69.5246C70.7673 95.1537 71.8028 96.2333 71.8028 97.0969C71.8028 98.1765 70.7673 99.0401 69.5246 99.0401Z" fill="#525761"/>
<path d="M113.188 99.0401H80.825C79.5823 99.0401 78.5468 97.9606 78.5468 97.0969C78.5468 96.0173 79.5823 95.1537 80.825 95.1537H113.188C114.431 95.1537 115.467 96.2333 115.467 97.0969C115.467 98.1765 114.431 99.0401 113.188 99.0401Z" fill="#525761"/>
<path d="M92.7216 87.5969H63.5181C62.2754 87.5969 61.2399 86.5173 61.2399 85.6537C61.2399 84.5741 62.2754 83.7104 63.5181 83.7104H92.7216C93.9643 83.7104 94.9999 84.79 94.9999 85.6537C94.9999 86.7332 94.1715 87.5969 92.7216 87.5969Z" fill="#525761"/>
<path d="M130.894 87.5969H101.691C100.448 87.5969 99.4126 86.5173 99.4126 85.6537C99.4126 84.5741 100.448 83.7104 101.691 83.7104H130.894C132.137 83.7104 133.173 84.79 133.173 85.6537C133.173 86.7332 132.344 87.5969 130.894 87.5969Z" fill="#34323D"/>
<path d="M151.76 87.5969H140.128C138.885 87.5969 137.85 86.5173 137.85 85.6537C137.85 84.5741 138.885 83.7104 140.128 83.7104H151.76C153.003 83.7104 154.039 84.79 154.039 85.6537C154.039 86.7332 153.21 87.5969 151.76 87.5969Z" fill="#34323D"/>
<path opacity="0.3" d="M231.962 145.085H161.813C159.247 145.085 157.365 142.944 157.365 140.447V62.6826C157.365 60.1854 159.418 58.0451 161.813 58.0451H231.791C234.357 58.0451 236.239 60.1854 236.239 62.6826V140.447C236.41 143.123 234.357 145.085 231.962 145.085Z" fill="#34323D"/>
<path d="M239.12 136.131H168.971C166.405 136.131 164.523 133.99 164.523 131.493V53.7287C164.523 51.2317 166.576 49.0914 168.971 49.0914H238.949C241.516 49.0914 243.397 51.2317 243.397 53.7287V131.493C243.568 134.169 241.516 136.131 239.12 136.131Z" fill="#E4E4E4" stroke="#34323D" stroke-width="2" stroke-miterlimit="10"/>
<path d="M228.511 72.9914H178.722C177.184 72.9914 175.815 71.5645 175.815 69.9593V64.0735C175.815 62.4683 177.184 61.0414 178.722 61.0414H228.511C230.052 61.0414 231.421 62.4683 231.421 64.0735V69.9593C231.592 71.743 230.223 72.9914 228.511 72.9914Z" fill="#4A515F"/>
<path d="M207.468 93.3245H178.039C176.841 93.3245 175.815 92.2544 175.815 91.0058V83.6931C175.815 82.4445 176.841 81.3745 178.039 81.3745H207.296C208.494 81.3745 209.52 82.4445 209.52 83.6931V91.0058C209.692 92.2544 208.665 93.3245 207.468 93.3245Z" fill="#4A515F"/>
<path d="M229.88 93.3245H217.049C216.192 93.3245 215.508 92.611 215.508 91.7193V82.9797C215.508 82.0879 216.192 81.3745 217.049 81.3745H229.88C230.735 81.3745 231.421 82.0879 231.421 82.9797V91.7193C231.59 92.4327 230.735 93.3245 229.88 93.3245Z" fill="#4A515F"/>
<path d="M175.815 106.88H231.592" stroke="#34323D" stroke-width="2" stroke-miterlimit="10"/>
<path d="M175.815 115.976H231.592" stroke="#34323D" stroke-width="2" stroke-miterlimit="10"/>
<path d="M175.815 125.073H204.044" stroke="#34323D" stroke-width="2" stroke-miterlimit="10"/>
</svg>
